<svg xmlns="http://www.w3.org/2000/svg" width="317.333" height="282.667" version="1.0" viewBox="0 0 238 212"><path d="M6.6 2.9c-.5.7-1.7 1.1-2.7.8-6-1.6 2.8 15.9 13.7 27.3l5.4 5.7-2 4.4c-4.3 9.5-1.4 22 6.1 26.4 4.6 2.7 14.9 2.5 21.4-.4l4.7-2.1 3.8 3.3 3.9 3.2-22.2.6c-12.2.3-23.7.9-25.4 1.3-2.9.7-3.3 1.2-3.3 4 0 3.1.3 3.4 3.8 4 2 .3 16.2.6 31.4.6H73l.4 2.2c.3 1.3.8 8.8 1.1 16.8.3 8 .8 17.9 1.2 22.2l.5 7.6-22.3-.5c-24.5-.6-46.6.4-41.4 1.8 2.7.8 32.6 3.8 54.8 5.5 4.8.3 8.7.7 8.8.8 0 0 .4 11.8.9 26.1.7 24.7 2.2 38.9 4.1 40.9.5.6.9-4.4 1-12 0-7.1.2-13.7.4-14.7s.7-9.8 1.1-19.7c.3-9.8 1-18.3 1.4-19 .9-1.4 58 1.8 59.6 3.4.6.6 1.6 6.9 2.2 14.1 1.3 15.1 4.5 32.5 7.3 40.1 1.9 5 2.2 5.4 4.7 4.8 1.5-.4 3.1-1 3.6-1.4.4-.5-.3-8.2-1.7-17.2-1.4-8.9-2.9-19.6-3.3-23.7l-.7-7.5 2.4 2c1.4 1 4.3 3.4 6.6 5.2l4.1 3.3-1.8 3.7c-2.9 5.9-4.2 15-3 21 1.1 6.3 2 7.9 5.5 11.2 2.4 2.3 3.4 2.5 10.3 2.3 8.3-.1 17.1-2.7 22.3-6.4l3-2.1 3.7 2.8c2 1.5 5.2 3.9 7 5.2 4.8 3.6 3.9 1.8-2.4-4.8l-5.5-5.8 1.5-3.1c.9-1.6 1.6-5 1.6-7.4 0-5.5-2.8-9.9-9.3-14.7-4.1-3-4.7-3.9-4.2-6.1.6-2.4.2-2.9-3.9-4.4-5.5-2.1-12.2-1.5-17.4 1.5l-3.4 2-6.8-6c-10.8-9.6-10.9-9.1 1.1-8.3 5.7.4 23.2.7 38.9.8h28.4l.7-3.2c.4-2.3.2-3.3-.8-3.7-2.7-1.1-22.9-2.5-51.5-3.7l-28.6-1.2-.6-12.1c-.3-6.7-.7-18.2-.8-25.6l-.3-13.5 22-.7c12.1-.4 30.1-1.1 40-1.6 16.5-.7 17.7-.9 14-2-2.2-.7-10-1.7-17.4-2.1-10.2-.7-13.6-1.3-14.3-2.4-.4-.8-2.6-3.8-4.8-6.6-2.2-2.8-4-5.4-4-5.9 0-.4 2.8-2.9 6.3-5.4 9.5-7 15.7-12.8 15.7-14.6 0-1-.9-2.8-1.9-4.1l-1.8-2.3-3.9 2c-2.2 1.1-7.6 5.2-12.2 9.1-4.5 4-8.7 6.9-9.2 6.6-.5-.3-3.9-5.1-7.5-10.5s-6.9-10.1-7.4-10.4c-.5-.3-2.3-.3-4 0-2.6.5-3.1 1.1-3.1 3.4 0 3.6 4 11 10.1 18.6l4.9 6.2-2.9 2.4c-1.5 1.4-4.9 3.8-7.5 5.4-2.5 1.6-4.6 3.2-4.6 3.6 0 1.9 8 .6 13.8-2.2 3.5-1.7 6.8-3 7.3-3s3.4 2 6.5 4.5l5.5 4.5h-12.4c-6.8 0-15.8-.3-19.9-.6l-7.5-.7-.7-20.6c-.4-11.4-1-22-1.5-23.6l-.8-3-.6 2.5c-.3 1.4-1.3 11.9-2.2 23.4-.8 11.6-1.7 21.2-1.9 21.4-.2.2-14.4 0-31.5-.4L83 71.7v-6.6c0-8.9-1.9-36.7-2.8-41.1-.7-3.1-1.2-3.5-4-3.7-2.6-.1-3.3.3-3.8 2.3-.3 1.3-.4 11.8-.3 23.4.2 11.5.2 21 0 21s-3.3-2.5-7-5.6c-5.6-4.8-6.8-6.4-7.8-10.6-1.2-4.5-6-12.9-8.3-14.3-.5-.3-.4-1.8.2-3.7.9-2.6.8-3.3-.6-4.3-3-2.2-9.2-2.6-14.2-.9l-4.7 1.6-4.4-4.4C21.2 20.9 11.1 8 8.4 3.5c-.8-1.4-1.2-1.6-1.8-.6zm40.7 38.9c1.6 2.9 2.7 5.5 2.5 5.8-.8.7-11.8-9.8-11.2-10.7.3-.6 1.8-.9 3.2-.7 2.1.2 3.3 1.5 5.5 5.6zM39 52.4c3.9 3.8 6.9 7.1 6.6 7.3-.2.3-3.2.6-6.6.6-5.4.2-6.4-.1-8.1-2.2-1.9-2.3-2.4-6.6-1.3-10.9.4-1.3 1-2.2 1.5-2 .4.2 4 3.4 7.9 7.2zm87.7 31.1c.2.6-2.7 1-7.4 1-6.9.1-8.5.4-14 3.4L99 91.3l-4.2-3.9c-2.4-2.1-4.5-4.2-4.6-4.6-.2-.5 7.8-.7 17.9-.6 11.2.2 18.4.7 18.6 1.3zm18.9.7c-.3 1.3-.6 12.6-.6 25.2v22.9l-4.7-4.3c-2.7-2.4-7-6.4-9.7-8.9l-4.9-4.5 3.7-3.1c9.8-8.2 10.2-17.6 1.3-27.3l-2-2.2h8.7c8.7 0 8.8 0 8.2 2.2zM132 97.4c0 2.1-5 7.1-9.8 9.9l-3.1 1.8-5.5-4.8c-3-2.6-5.5-5.1-5.5-5.5-.2-1.3 5.8-3.8 12.2-5.1 6-1.2 6.2-1.4 6.6-4.7l.3-3.5 2.4 5c1.3 2.7 2.4 5.8 2.4 6.9zm-43.1-1.9 3.9 3.5-1.5 4.3c-5 14.5 8.6 25.5 22.7 18.2 3.7-1.9 4.3-1.6 12.5 5.9l5 4.6-23-.7c-12.6-.3-23.1-.7-23.3-.8-.7-.6-1.5-38.5-.9-38.5.4 0 2.4 1.6 4.6 3.5zm21.1 18.1c0 .2-1.8.4-4 .4-4.4 0-6.6-2.5-5.5-6 .6-1.9 1-1.8 5.1 1.6 2.4 2 4.4 3.8 4.4 4zm87.5 53.2c5.5 4.1 9 10 8.1 13.5-1.5 5.6-2 5.4-13.1-4.8-9.6-9-10.5-10.1-8.9-11.2 3.4-2.5 8.5-1.6 13.9 2.5zm1 21.3c-1 1.5-10.7 3.9-16.1 3.9-4.2 0-5.5-.4-6.4-1.9-1.5-2.9-1.2-12.6.5-16.7l1.4-3.5 10.6 8.6c5.8 4.8 10.3 9.1 10 9.6z"/><path d="M88.7 33.6c-2.2 1.2-2.7 2-2.1 3.7.9 2.8 3.9 7.4 7.7 11.4l3 3.2-3.2 3.6C91.4 58.6 90 62 91.5 62c.2 0 2.8-1.2 5.7-2.6l5.3-2.6 6.8 4.6c6 4.1 12.5 6.9 13.6 6 .6-.5-2.8-5.4-7.2-10.1-2.2-2.4-3.8-4.5-3.6-4.6.2-.2 2.8-1.4 5.8-2.7 6.7-3.1 13.1-7.6 13.1-9.3-.1-.6-1-2.3-2-3.6-2.6-3-4.9-2.4-15.6 3.9l-8.2 4.8-5.6-6.9c-3.1-3.8-6.2-6.9-6.9-6.9-.6.1-2.5.8-4 1.6zM52.9 90.4c-4.2 1.8-10.6 4.9-14.2 6.9l-6.5 3.5-2-2.1c-1-1.2-2.7-3.4-3.7-5-1.4-2.2-2.5-2.7-5.7-2.7h-4.1l.5 4.4c.3 2.4 1.6 5.9 2.9 7.7l2.3 3.2-3.4 2.6c-9.1 6.8-14.4 13-12.7 14.7.3.3 2.5-.7 4.9-2.2 2.3-1.5 7.5-4.2 11.3-5.9l7-3.2 8.7 5.9c4.7 3.3 9.2 6.6 9.8 7.4 1.7 2 3 1.7 3-.7 0-2.8-1.6-5.6-6.7-11.6l-4.4-5.2 10.7-5.1c5.8-2.8 11.7-6.2 13-7.5 2.3-2.3 2.3-2.5.6-5.4-.9-1.7-2.1-3.1-2.7-3.1-.5 0-4.4 1.5-8.6 3.4zM187 91.1c-5.7 1.1-14.6 7.2-18.4 12.6-2.1 3-3.1 5.8-3.4 9.5-.3 4.7-.1 5.6 2.3 7.8 6.1 5.7 20.2 1.3 30.4-9.5 5.4-5.7 7.1-9.7 5.3-12.6-.7-1-.9-2.5-.6-3.3 1.3-3.4-7.8-6-15.6-4.5zm14 9.8c0 1.8-7.5 7.4-13.6 10.3-6.6 3.1-13.4 4.7-13.4 3.1 0-.5 1.6-2.8 3.6-5.1 3.5-4.2 7.4-6.8 12.4-8.3 3.5-1 11-1.1 11 0zM26.2 152.5c.4 2.7 1.6 5.9 3.3 8.1 1.5 2 2.3 3.9 1.9 4.3-.5.4-3.2 2.6-6.1 5-5.1 4.1-10.1 10.7-9 11.7.3.3 3.6-1.2 7.4-3.4 3.7-2.2 8.7-4.9 11-6.1l4.2-2.1 3.8 2.6c4.5 3.1 16.8 9.4 18.3 9.4 2.2 0 .7-2.5-5.7-9.1-3.6-3.8-6.4-7-6.2-7.2.2-.2 5.4-2.3 11.4-4.8l11-4.4.3-3.8c.2-2.6-.1-3.9-1.2-4.3-2.5-1-11.4 1.5-20.5 5.7-4.6 2.2-8.7 3.9-9.1 3.9-.4 0-2-1.9-3.6-4.3-3.6-5.3-4.2-5.7-8.3-5.7h-3.4l.5 4.5zM113.5 153.7c-12.2 1.6-21.6 7.7-26 16.7-6.9 14.2 1.6 29.1 15.5 27.2 6.3-.8 17.7-6.7 22.4-11.5 3.4-3.4 4-4.8 4.4-9.4.3-4.1-.1-6.6-1.7-10.2-1.1-2.6-1.8-5.1-1.6-5.6.5-.8-8.4-8-9.5-7.7-.3 0-1.8.3-3.5.5zm8.8 12.2c.5.5 1.2 3.1 1.4 5.8.4 3.9.1 5.3-1.7 7.5-2.5 3.2-12.8 8.3-18.6 9.3-3.7.6-4.4.3-6.3-2.1-6.9-8.7 6-23.4 19.3-22 2.7.3 5.4 1 5.9 1.5z"/></svg>